<svg width="230" height="88" viewBox="0 0 230 88" fill="none" xmlns="http://www.w3.org/2000/svg">
<title>Packer Logo</title>
<path d="M75.8398 23.6904H91.5698C100.88 23.6904 104.33 27.5004 104.33 34.5804V40.0804C104.33 47.0804 100.58 50.9104 91.1998 50.9104H83.4598V64.0004H75.8398V23.6904ZM91.1398 30.4104H83.4598V44.2004H91.1398C95.4398 44.2004 96.7098 42.6204 96.7098 39.3004V35.1904C96.7098 31.8604 95.2998 30.4104 91.1398 30.4104Z" fill="white"/>
<path d="M130.09 63.9999H124.09L123.55 61.9999C120.938 63.6937 117.892 64.5965 114.78 64.5999C109.39 64.5999 107.1 60.9099 107.1 55.8299C107.1 49.8299 109.7 47.5399 115.68 47.5399H122.76V44.4399C122.76 41.1699 121.85 40.0199 117.14 40.0199C114.393 40.052 111.656 40.3568 108.97 40.9299L108.06 35.3099C111.349 34.3995 114.746 33.932 118.16 33.9199C127.42 33.9199 130.16 37.1799 130.16 44.5599L130.09 63.9999ZM122.71 52.8799H117.3C114.88 52.8799 114.21 53.5399 114.21 55.7799C114.21 57.7799 114.88 58.7799 117.21 58.7799C119.161 58.7535 121.073 58.234 122.77 57.2699L122.71 52.8799Z" fill="white"/>
<path d="M134.5 53.2709V45.2709C134.5 37.3409 137.95 33.9609 147.2 33.9609C149.637 33.9627 152.062 34.3129 154.4 35.0009L153.49 41.0009C151.49 40.5082 149.44 40.2465 147.38 40.2209C143.15 40.2209 141.88 41.4909 141.88 45.1209V53.2809C141.88 56.9109 143.15 58.1809 147.38 58.1809C149.442 58.1748 151.495 57.9094 153.49 57.3909L154.4 63.3909C152.069 64.1166 149.641 64.4841 147.2 64.4809C137.95 64.5809 134.5 61.1909 134.5 53.2709Z" fill="white"/>
<path d="M159.061 64.0002V22.4902L166.431 21.4902V64.0002H159.061ZM184.061 34.5502L175.451 49.1002L184.451 63.9702H176.341L167.461 49.1002L175.871 34.5202L184.061 34.5502Z" fill="white"/>
<path d="M199.45 58.5299C202.503 58.5163 205.536 58.0478 208.45 57.1399L209.6 62.6999C206.131 63.9541 202.469 64.5904 198.78 64.5799C189.52 64.5799 186.32 60.2799 186.32 53.2099V45.4099C186.32 39.1799 189.1 33.9199 198.54 33.9199C207.98 33.9199 210.09 39.4199 210.09 45.7699V52.0599H193.71V53.5699C193.71 57.1399 194.98 58.5299 199.45 58.5299ZM193.71 46.1299H203.08V44.6799C203.08 41.8999 202.24 39.9599 198.61 39.9599C194.98 39.9599 193.71 41.8999 193.71 44.6799V46.1299Z" fill="white"/>
<path d="M229.811 40.6899C227.105 41.9186 224.497 43.3528 222.011 44.9799V63.9999H214.631V34.5199H220.861L221.341 37.7899C223.743 36.1644 226.348 34.8631 229.091 33.9199L229.811 40.6899Z" fill="white"/>
<path fill-rule="evenodd" clip-rule="evenodd" d="M0 16.2705L22.69 29.3805V77.7205L0 64.6105V16.2705Z" fill="#02A8EF"/>
<path d="M33.9208 21.9207L9.30078 7.7207V17.5807L26.0708 27.2607V56.8607L33.9608 61.3907C38.8508 64.2107 42.8408 62.5207 42.8408 57.6407V35.9207C42.8008 31.0007 38.8108 24.7407 33.9208 21.9207Z" fill="#02A8EF"/>
</svg>
